<?xml version="1.0" standalone="no"?>
<!DOCTYPE svg PUBLIC "-//W3C//DTD SVG 20010904//EN"
 "http://www.w3.org/TR/2001/REC-SVG-20010904/DTD/svg10.dtd">
<svg version="1.0" xmlns="http://www.w3.org/2000/svg"
 width="128.000000pt" height="128.000000pt" viewBox="0 0 128.000000 128.000000"
 preserveAspectRatio="xMidYMid meet">
<metadata>
Created by potrace 1.14, written by Peter Selinger 2001-2017
</metadata>
<g transform="translate(0.000000,128.000000) scale(0.100000,-0.100000)"
fill="#000000" stroke="none">
<path d="M50 1193 c0 -31 138 -203 163 -203 5 0 21 -8 35 -19 28 -19 167 -70
212 -77 14 -2 34 -6 46 -9 12 -3 39 -7 60 -11 72 -11 50 -16 -46 -10 -52 4
-110 9 -128 11 -45 6 -212 63 -240 81 -32 21 -38 12 -16 -23 32 -50 92 -98
151 -121 78 -30 120 -37 235 -37 53 0 94 -3 92 -6 -11 -18 -196 -30 -263 -17
-25 5 -56 10 -68 13 -30 5 -29 1 11 -39 60 -57 99 -71 206 -71 99 1 170 19
301 78 196 88 242 105 293 102 48 -2 82 -36 66 -66 -6 -10 -8 -19 -4 -19 3 0
1 -7 -6 -15 -8 -10 -9 -15 -2 -15 11 0 39 53 43 80 5 42 -4 66 -39 100 -53 54
-97 63 -307 65 -155 1 -209 5 -295 20 -111 20 -295 95 -423 174 -69 42 -77 46
-77 34z"/>
<path d="M993 800 c-127 -45 -264 -146 -279 -205 -24 -94 49 -121 273 -101 55
6 93 4 118 -4 69 -23 79 -103 23 -183 -31 -43 -33 -24 -3 23 28 44 27 64 -2
37 -32 -28 -75 -40 -197 -52 -58 -5 -125 -43 -148 -83 l-18 -30 96 25 c53 13
101 22 108 19 6 -2 2 -5 -9 -5 -11 -1 -31 -10 -45 -21 -14 -11 -31 -20 -37
-20 -18 0 -143 -59 -157 -73 -6 -7 -22 -27 -35 -44 -27 -39 -18 -41 61 -13
136 48 234 101 310 169 22 20 44 36 49 36 16 0 60 46 97 103 24 36 36 67 40
102 4 46 2 52 -27 79 -39 36 -92 45 -225 36 -115 -8 -156 2 -156 37 0 32 84
107 170 151 79 40 77 47 -7 17z"/>
</g>
</svg>
